<?xml version="1.0" standalone="no"?>
<!DOCTYPE svg PUBLIC "-//W3C//DTD SVG 20010904//EN"
 "http://www.w3.org/TR/2001/REC-SVG-20010904/DTD/svg10.dtd">
<svg version="1.0" xmlns="http://www.w3.org/2000/svg"
 width="231.000000pt" height="177.000000pt" viewBox="0 0 231.000000 177.000000"
 preserveAspectRatio="xMidYMid meet">
<metadata>
Created by potrace 1.10, written by Peter Selinger 2001-2011
</metadata>
<g transform="translate(0.000000,177.000000) scale(0.100000,-0.100000)"
fill="#000000" stroke="none">
<path d="M915 1725 c-209 -28 -418 -101 -590 -203 -87 -52 -250 -178 -290
-225 -31 -36 -35 -47 -35 -98 0 -53 3 -61 34 -93 39 -38 95 -53 138 -37 14 5
62 39 106 75 263 214 538 316 854 316 319 0 585 -101 868 -329 119 -97 163
-98 259 -8 45 42 51 53 51 88 0 22 -4 38 -8 35 -5 -3 -33 20 -63 51 -60 62
-202 171 -295 226 -56 34 -178 90 -269 123 -222 83 -515 113 -760 79z"/>
<path d="M1045 1274 c-262 -28 -496 -131 -673 -298 -64 -61 -82 -107 -62 -167
19 -58 70 -94 130 -94 42 0 55 6 124 60 190 148 315 200 511 210 154 9 317
-18 403 -67 20 -11 57 -31 83 -45 27 -13 67 -41 91 -62 92 -80 128 -101 177
-101 82 0 141 59 141 140 0 63 -35 108 -155 200 -79 60 -236 138 -355 176
-106 34 -316 58 -415 48z"/>
<path d="M1040 800 c-114 -16 -229 -67 -323 -145 -82 -67 -101 -98 -100 -157
1 -54 26 -93 76 -120 58 -31 99 -21 182 47 70 57 94 71 155 89 68 20 132 20
200 0 60 -18 85 -32 150 -85 25 -21 62 -45 82 -54 100 -48 212 55 179 164 -8
28 -31 57 -75 98 -140 127 -340 189 -526 163z"/>
<path d="M1065 308 c-34 -18 -77 -62 -87 -88 -14 -38 -12 -104 6 -138 9 -17
31 -42 49 -56 28 -22 44 -26 98 -26 35 1 74 6 86 13 32 18 72 75 79 115 13 68
-37 158 -101 182 -35 13 -105 12 -130 -2z"/>
</g>
</svg>
