<?xml version="1.0" standalone="no"?>
<!DOCTYPE svg PUBLIC "-//W3C//DTD SVG 20010904//EN"
 "http://www.w3.org/TR/2001/REC-SVG-20010904/DTD/svg10.dtd">
<svg version="1.0" xmlns="http://www.w3.org/2000/svg"
 width="510.000000pt" height="315.000000pt" viewBox="0 0 510.000000 315.000000"
 preserveAspectRatio="xMidYMid meet">
<metadata>
Created by potrace 1.10, written by Peter Selinger 2001-2011
</metadata>
<g transform="translate(0.000000,315.000000) scale(0.100000,-0.100000)"
fill="#000000" stroke="none">
<path d="M3067 3136 c-3 -8 -25 -17 -49 -21 -135 -21 -309 -98 -448 -199 -123
-89 -286 -273 -329 -371 -19 -43 -31 -46 -142 -34 -309 34 -597 -40 -831 -213
-161 -119 -271 -251 -367 -442 l-26 -51 -60 -1 c-106 -1 -214 -15 -273 -35
-240 -83 -414 -243 -499 -459 -34 -86 -43 -144 -43 -275 0 -152 15 -223 71
-340 76 -160 251 -314 429 -380 61 -22 224 -54 281 -55 60 0 197 25 273 51
l58 20 43 -36 c127 -103 319 -187 528 -229 119 -24 425 -22 548 4 130 28 233
61 319 105 27 14 58 25 68 25 10 0 43 -18 73 -39 159 -113 316 -161 531 -161
165 0 254 20 393 87 132 64 189 107 298 224 l84 90 49 -22 c134 -58 283 -73
414 -40 203 50 366 173 487 366 46 73 105 223 118 298 3 21 13 41 21 44 21 8
21 393 0 393 -9 0 -17 16 -21 43 -24 153 -129 349 -256 476 -83 84 -276 191
-344 191 -58 1 -78 21 -90 97 -11 61 -44 155 -96 268 -5 11 -18 34 -29 50 -11
17 -23 37 -27 45 -15 34 -96 131 -169 204 -153 150 -350 256 -564 300 -33 7
-54 16 -52 24 3 19 -364 17 -371 -2z m369 -195 c205 -43 363 -129 512 -279
124 -126 210 -284 253 -465 11 -43 19 -100 19 -127 0 -74 5 -80 64 -80 291 0
521 -206 606 -544 28 -110 27 -287 0 -402 -21 -87 -64 -197 -87 -225 -7 -8
-13 -20 -13 -25 -1 -25 -146 -175 -205 -211 -71 -44 -195 -83 -265 -83 -106 0
-279 68 -348 137 -7 7 -19 13 -27 13 -12 0 -69 -79 -86 -120 -9 -21 -85 -107
-141 -158 -92 -86 -222 -153 -353 -183 -230 -53 -473 20 -667 199 l-58 54 -68
-44 c-110 -74 -209 -114 -374 -152 -93 -22 -403 -22 -496 0 -229 53 -355 116
-484 242 l-67 65 -88 -40 c-121 -55 -248 -80 -340 -64 -115 18 -146 27 -205
55 -210 100 -348 311 -348 531 0 213 140 432 335 524 66 32 104 43 190 55 75
11 105 11 189 -1 55 -7 104 -12 109 -10 5 1 17 29 28 62 119 360 438 624 804
667 103 12 288 3 349 -16 78 -25 137 -39 143 -33 3 4 22 44 43 91 185 418 641
658 1076 567z"/>
<path d="M2990 2275 c-81 -16 -120 -29 -194 -66 -193 -98 -320 -251 -388 -467
-31 -98 -31 -307 1 -407 12 -38 30 -84 39 -102 9 -17 28 -53 42 -80 31 -62
191 -222 253 -253 27 -14 63 -33 80 -42 18 -9 63 -26 101 -38 97 -30 313 -31
407 -2 190 60 325 160 423 312 69 108 90 161 112 280 44 239 -31 482 -202 654
-57 57 -150 123 -224 158 -129 61 -302 81 -450 53z m367 -498 c160 -159 213
-219 213 -237 0 -32 -100 -130 -133 -130 -17 0 -48 24 -103 80 -43 44 -84 80
-91 80 -10 0 -13 -46 -13 -223 0 -160 -3 -226 -12 -235 -7 -7 -44 -12 -95 -12
-118 0 -115 -6 -112 257 1 149 -1 208 -9 208 -6 0 -47 -35 -91 -77 -55 -53
-88 -78 -104 -78 -16 0 -42 19 -80 59 -32 33 -57 62 -57 66 0 24 53 85 228
258 146 145 205 197 223 197 17 0 79 -55 236 -213z"/>
</g>
</svg>
