<?xml version="1.0" standalone="no"?>
<!DOCTYPE svg PUBLIC "-//W3C//DTD SVG 20010904//EN"
 "http://www.w3.org/TR/2001/REC-SVG-20010904/DTD/svg10.dtd">
<svg version="1.0" xmlns="http://www.w3.org/2000/svg"
 width="300.000000pt" height="300.000000pt" viewBox="0 0 300.000000 300.000000"
 preserveAspectRatio="xMidYMid meet">
<metadata>
Created by potrace 1.10, written by Peter Selinger 2001-2011
</metadata>
<g transform="translate(0.000000,300.000000) scale(0.100000,-0.100000)"
fill="#000000" stroke="none">
<path d="M1267 2918 c-32 -170 -47 -266 -47 -301 0 -33 -4 -39 -40 -57 -21
-11 -44 -20 -49 -20 -6 0 -49 -18 -96 -40 -47 -22 -91 -40 -98 -40 -11 1 -36
18 -167 115 -133 98 -167 119 -195 119 -26 0 -50 -20 -158 -129 -101 -102
-127 -135 -127 -156 0 -15 5 -31 10 -34 6 -4 26 -30 45 -58 19 -29 47 -70 63
-92 15 -22 50 -71 76 -109 l47 -69 -31 -66 c-50 -104 -58 -124 -64 -153 -9
-40 -42 -57 -130 -68 -43 -5 -81 -12 -85 -14 -4 -3 -47 -10 -96 -16 -136 -17
-125 4 -125 -239 l0 -209 73 -16 c79 -17 218 -42 284 -52 45 -6 83 -40 83 -75
0 -9 6 -30 14 -46 8 -15 28 -58 46 -95 l32 -67 -36 -48 c-19 -26 -47 -64 -61
-83 -134 -182 -157 -223 -146 -251 12 -31 240 -255 266 -263 21 -6 82 27 160
84 45 34 166 118 200 139 19 13 27 13 56 -1 76 -36 145 -65 170 -71 14 -4 38
-16 52 -28 22 -16 27 -29 27 -62 0 -23 5 -60 10 -82 6 -22 15 -73 20 -113 5
-41 14 -92 20 -113 l11 -39 209 0 c240 0 223 -7 240 102 14 96 39 227 50 269
12 44 23 54 75 68 22 6 75 28 117 50 l76 39 64 -42 c35 -23 86 -59 113 -79 28
-21 63 -45 78 -55 16 -9 45 -29 64 -44 20 -16 45 -28 56 -28 25 0 260 230 277
270 14 33 -1 69 -44 109 -14 14 -26 29 -26 34 0 5 -15 28 -32 50 -18 23 -44
58 -58 78 -14 21 -38 54 -55 74 l-29 37 28 57 c41 83 54 113 60 142 10 46 43
77 89 83 72 11 219 37 295 53 l72 16 0 212 0 212 -72 12 c-40 7 -109 19 -153
27 -44 8 -91 14 -105 14 -14 0 -41 5 -61 10 -29 8 -39 18 -53 53 -10 23 -36
84 -58 134 l-41 93 40 52 c21 29 47 66 58 82 11 15 35 49 53 75 101 142 104
149 88 178 -22 43 -250 263 -272 263 -21 0 -99 -50 -308 -200 l-68 -49 -62 31
c-93 46 -119 57 -148 64 -40 9 -58 35 -69 105 -6 35 -17 94 -25 131 -8 37 -14
80 -14 95 0 15 -8 49 -17 76 l-17 47 -207 0 -206 0 -16 -82z m413 -672 c142
-36 248 -93 349 -190 112 -109 181 -223 225 -377 23 -82 21 -292 -4 -386 -51
-192 -185 -371 -354 -471 -141 -83 -225 -105 -401 -105 -208 0 -323 39 -478
162 -61 48 -187 186 -187 204 0 3 -12 26 -27 53 -38 67 -51 105 -68 199 -64
349 88 674 396 843 56 31 113 51 214 77 70 18 246 13 335 -9z"/>
<path d="M1405 2124 c-131 -22 -279 -98 -365 -191 -126 -133 -180 -267 -180
-443 0 -268 155 -494 406 -595 122 -49 293 -57 410 -19 159 52 310 174 376
305 58 115 65 138 78 234 18 135 -9 264 -86 401 -35 63 -156 188 -210 217
-118 63 -195 87 -304 91 -52 3 -108 2 -125 0z m183 -429 c20 -9 48 -26 61 -38
36 -33 71 -115 71 -167 -1 -76 -50 -164 -111 -196 -110 -56 -248 -23 -305 73
-25 41 -29 58 -29 123 0 64 4 82 27 120 24 41 74 77 128 94 34 10 123 5 158
-9z"/>
</g>
</svg>
