<?xml version="1.0" standalone="no"?>
<!DOCTYPE svg PUBLIC "-//W3C//DTD SVG 20010904//EN"
 "http://www.w3.org/TR/2001/REC-SVG-20010904/DTD/svg10.dtd">
<svg version="1.0" xmlns="http://www.w3.org/2000/svg"
 width="378.000000pt" height="486.000000pt" viewBox="0 0 378.000000 486.000000"
 preserveAspectRatio="xMidYMid meet">
<metadata>
Created by potrace 1.10, written by Peter Selinger 2001-2011
</metadata>
<g transform="translate(0.000000,486.000000) scale(0.100000,-0.100000)"
fill="#000000" stroke="none">
<path d="M0 4585 l0 -275 1890 0 1890 0 0 275 0 275 -1890 0 -1890 0 0 -275z"/>
<path d="M440 4055 c-7 -8 -20 -15 -29 -15 -9 0 -40 -24 -69 -53 l-52 -53 0
-121 c0 -95 3 -123 15 -133 8 -7 15 -20 15 -29 0 -21 70 -91 92 -91 8 0 21 -7
28 -15 11 -13 187 -15 1470 -15 1283 0 1459 2 1470 15 7 8 20 15 29 15 21 0
91 70 91 92 0 8 7 21 15 28 22 18 22 222 0 240 -8 7 -15 20 -15 29 0 21 -70
91 -92 91 -8 0 -21 7 -28 15 -11 13 -187 15 -1470 15 -1283 0 -1459 -2 -1470
-15z"/>
<path d="M837 3223 c-4 -3 -7 -730 -7 -1615 l0 -1608 270 0 270 0 -2 1613 -3
1612 -261 3 c-143 1 -263 -1 -267 -5z"/>
<path d="M1617 3223 c-4 -3 -7 -730 -7 -1615 l0 -1608 270 0 270 0 -2 1613 -3
1612 -261 3 c-143 1 -263 -1 -267 -5z"/>
<path d="M2457 3223 c-4 -3 -7 -730 -7 -1615 l0 -1608 270 0 270 0 -2 1613 -3
1612 -261 3 c-143 1 -263 -1 -267 -5z"/>
</g>
</svg>
