<?xml version="1.0" standalone="no"?>
<!DOCTYPE svg PUBLIC "-//W3C//DTD SVG 20010904//EN"
 "http://www.w3.org/TR/2001/REC-SVG-20010904/DTD/svg10.dtd">
<svg version="1.0" xmlns="http://www.w3.org/2000/svg"
 width="159.000000pt" height="180.000000pt" viewBox="0 0 159.000000 180.000000"
 preserveAspectRatio="xMidYMid meet">
<metadata>
Created by potrace 1.10, written by Peter Selinger 2001-2011
</metadata>
<g transform="translate(0.000000,180.000000) scale(0.100000,-0.100000)"
fill="#000000" stroke="none">
<path d="M633 1788 c1 -7 -15 -16 -38 -21 -92 -21 -214 -79 -296 -143 -143
-110 -246 -269 -288 -447 -17 -71 -14 -293 5 -373 39 -169 156 -342 301 -446
l51 -36 19 21 c11 12 23 29 27 37 3 8 16 31 27 50 l21 35 -33 24 c-52 38 -154
143 -172 176 -27 51 -48 98 -68 155 -27 76 -27 269 0 355 64 205 211 349 426
419 35 11 86 16 165 16 123 0 172 -12 290 -68 72 -35 216 -179 249 -247 12
-27 28 -59 34 -70 17 -32 46 -176 46 -225 0 -65 -31 -195 -64 -265 -56 -118
-159 -226 -273 -285 -23 -12 -42 -24 -42 -27 0 -15 34 -104 41 -109 5 -3 9
-13 9 -24 0 -12 26 -34 82 -67 46 -26 92 -53 103 -60 11 -7 27 -16 35 -20 8
-4 59 -33 113 -65 54 -32 103 -58 108 -58 20 0 6 28 -51 108 -33 46 -60 85
-60 87 0 2 -25 38 -55 80 -30 43 -55 82 -55 88 0 6 26 38 58 72 81 87 134 154
153 195 32 70 48 116 54 158 4 26 12 42 21 42 11 0 14 27 14 150 0 121 -3 150
-14 150 -15 0 -26 30 -26 71 0 14 -7 34 -15 45 -8 10 -15 29 -15 40 0 12 -7
27 -15 34 -8 7 -15 18 -15 24 0 6 -16 30 -35 51 -19 22 -54 65 -78 95 -41 52
-137 138 -184 163 -89 49 -175 84 -226 92 -21 3 -41 13 -44 21 -7 19 -294 21
-290 2z"/>
<path d="M640 1465 c-79 -14 -144 -37 -156 -56 -3 -6 -2 -28 4 -48 6 -20 19
-67 28 -104 9 -37 20 -69 23 -72 4 -2 31 5 61 16 78 27 146 25 193 -6 32 -22
37 -31 37 -64 0 -42 -32 -94 -105 -171 -23 -25 -55 -67 -71 -95 -29 -53 -57
-184 -43 -206 8 -14 112 -27 215 -28 l61 -1 18 68 c23 85 34 102 125 199 116
124 151 209 134 334 -10 75 -74 158 -151 195 -105 50 -232 63 -373 39z"/>
<path d="M663 559 c-84 -25 -139 -140 -113 -234 18 -65 78 -122 136 -131 25
-3 64 -3 87 0 154 25 201 242 73 339 -40 31 -128 43 -183 26z"/>
</g>
</svg>
