<?xml version="1.0" standalone="no"?>
<!DOCTYPE svg PUBLIC "-//W3C//DTD SVG 20010904//EN"
 "http://www.w3.org/TR/2001/REC-SVG-20010904/DTD/svg10.dtd">
<svg version="1.0" xmlns="http://www.w3.org/2000/svg"
 width="351.000000pt" height="339.000000pt" viewBox="0 0 351.000000 339.000000"
 preserveAspectRatio="xMidYMid meet">
<metadata>
Created by potrace 1.10, written by Peter Selinger 2001-2011
</metadata>
<g transform="translate(0.000000,339.000000) scale(0.100000,-0.100000)"
fill="#000000" stroke="none">
<path d="M2500 3295 c-96 -28 -161 -81 -208 -170 -21 -42 -25 -63 -25 -130 0
-82 16 -129 66 -196 l20 -28 -47 -78 c-26 -43 -52 -87 -59 -98 -12 -18 -48
-78 -74 -120 -7 -11 -17 -29 -23 -40 -6 -11 -19 -33 -30 -50 -50 -76 -49 -89
9 -118 14 -7 36 -20 48 -27 28 -18 45 -5 81 63 15 27 32 57 37 66 6 9 48 81
94 159 46 79 89 146 95 150 6 4 45 7 86 7 260 2 408 282 259 490 -41 57 -118
108 -187 123 -65 14 -84 14 -142 -3z"/>
<path d="M755 2849 c-126 -41 -211 -129 -234 -242 -15 -72 0 -159 40 -221 54
-86 174 -157 263 -156 17 1 56 9 86 20 30 11 64 19 75 20 12 0 61 -38 118 -91
l98 -92 50 49 c27 26 49 54 49 60 0 7 -46 55 -102 107 l-103 96 19 36 c29 54
25 178 -8 242 -71 137 -225 212 -351 172z"/>
<path d="M1635 2168 c-180 -62 -313 -190 -371 -359 -26 -75 -26 -242 0 -319
87 -253 332 -410 578 -370 189 30 331 129 407 284 48 98 60 147 61 246 0 163
-71 312 -195 413 -112 90 -193 117 -344 116 -58 0 -119 -5 -136 -11z"/>
<path d="M3110 1814 c-83 -22 -139 -62 -189 -133 -41 -59 -46 -62 -75 -57 -17
4 -83 11 -146 16 -63 6 -134 13 -157 16 -39 6 -43 4 -53 -21 -5 -14 -10 -51
-10 -80 0 -63 -5 -60 125 -70 188 -14 254 -20 257 -25 2 -3 13 -25 23 -50 73
-171 239 -249 401 -189 86 33 169 117 188 192 3 15 13 27 21 27 12 0 15 15 15
70 0 55 -3 70 -15 70 -8 0 -18 16 -24 36 -19 70 -87 143 -166 180 -68 31 -128
37 -195 18z"/>
<path d="M1018 1485 c-6 -7 -371 -134 -406 -142 -18 -4 -34 4 -70 39 -67 65
-103 80 -204 86 -76 4 -92 2 -140 -20 -65 -30 -131 -95 -160 -157 -16 -35 -21
-65 -22 -126 0 -72 4 -86 34 -143 37 -70 69 -101 141 -138 69 -35 188 -34 262
1 100 47 177 152 177 241 0 46 16 65 70 83 217 70 406 134 412 140 8 7 -13 86
-32 120 -10 19 -49 29 -62 16z"/>
<path d="M1950 960 c-14 -4 -37 -11 -51 -14 -15 -3 -29 -12 -32 -20 -5 -14 39
-216 63 -292 19 -58 13 -76 -43 -125 -73 -64 -99 -116 -105 -209 -4 -63 -1
-85 18 -130 25 -58 87 -132 132 -156 34 -17 278 -20 311 -3 40 21 108 93 129
139 28 60 30 189 3 246 -44 94 -107 149 -206 177 -63 19 -74 29 -81 72 -6 35
-24 108 -44 181 -8 28 -14 64 -14 81 0 28 -26 64 -46 62 -5 0 -20 -4 -34 -9z"/>
</g>
</svg>
